<?xml version="1.0" encoding="utf-8"?>
<!-- Generator: Adobe Illustrator 19.0.0, SVG Export Plug-In . SVG Version: 6.00 Build 0)  -->
<svg version="1.1" id="Capa_1" xmlns="http://www.w3.org/2000/svg" xmlns:xlink="http://www.w3.org/1999/xlink" x="0px" y="0px"
	 viewBox="-293 293.7 377.2 254.2" style="enable-background:new -293 293.7 377.2 254.2;" xml:space="preserve">
<style type="text/css">
	.st0{stroke:#FFFFFF;stroke-miterlimit:10;}
</style>
<g>
	<path fill="#603813"  d="M83.5,414l-19.7-42.6c-1.2-2.7-3.9-4.4-6.8-4.4H-5V330c0-4.1-3.4-7.5-7.5-7.5h-150c-4.1,0-7.5,3.4-7.5,7.5v126.2
		c0,4.1,3.4,7.5,7.5,7.5h14.7c-1.3,2.8-2.2,5.7-2.8,8.7h-11.9c-4.1,0-7.5,3.4-7.5,7.5s3.4,7.5,7.5,7.5h11.9
		c3.5,18,19.4,31.7,38.4,31.7c19,0,34.9-13.6,38.4-31.7h62.6c3.5,18,19.4,31.7,38.4,31.7c19,0,34.9-13.6,38.4-31.7h11
		c4.1,0,7.5-3.4,7.5-7.5v-62.7C84.2,416.1,84,415,83.5,414z M-11.1,472.4h-62.6c-0.6-3-1.5-6-2.8-8.7h64.1c2,0,3.8-0.8,5.1-2
		C-9.1,465-10.4,468.6-11.1,472.4z M-155,337.5h135v111.2h-68.6c-6.6-5-14.8-7.9-23.6-7.9s-17.1,3-23.6,7.9H-155V337.5z
		 M-112.2,504.1c-13.3,0-24.2-10.8-24.2-24.2c0-13.3,10.8-24.2,24.2-24.2c13.3,0,24.2,10.8,24.2,24.2
		C-88,493.2-98.8,504.1-112.2,504.1z M27.3,504.1c-13.3,0-24.2-10.8-24.2-24.2c0-13.3,10.8-24.2,24.2-24.2
		c13.3,0,24.2,10.8,24.2,24.2C51.4,493.2,40.6,504.1,27.3,504.1z M69.2,472.4h-3.5c-3.5-18-19.4-31.7-38.4-31.7
		c-13.5,0-25.5,6.9-32.5,17.4c0.2-0.6,0.3-1.3,0.3-1.9v-74.1h57.2l17,36.7V472.4z"/>
	<path fill="#603813"  d="M41.1,389H9.5c-4.1,0-7.5,3.4-7.5,7.5v20.8c0,4.1,3.4,7.5,7.5,7.5H51c0,0,0,0,0,0c4.1,0,7.5-3.4,7.5-7.5
		c0-1.3-0.4-2.6-1-3.7l-9.7-20.4C46.6,390.6,44,389,41.1,389z M17,409.8V404h19.3l2.8,5.9H17z"/>
</g>
<path fill="#603813"  class="st0" d="M-182.5,362.6h-98c-3.6,0-6.5-2.9-6.5-6.5v0c0-3.6,2.9-6.5,6.5-6.5h98c3.6,0,6.5,2.9,6.5,6.5v0
	C-176,359.6-178.9,362.6-182.5,362.6z"/>
<path fill="#603813"  class="st0" d="M-182.5,398.2h-78.1c-3.6,0-6.5-2.9-6.5-6.5v0c0-3.6,2.9-6.5,6.5-6.5h78.1c3.6,0,6.5,2.9,6.5,6.5v0
	C-176,395.2-178.9,398.2-182.5,398.2z"/>
<path fill="#603813"  class="st0" d="M-182.5,433.8h-98c-3.6,0-6.5-2.9-6.5-6.5l0,0c0-3.6,2.9-6.5,6.5-6.5h98c3.6,0,6.5,2.9,6.5,6.5l0,0
	C-176,430.8-178.9,433.8-182.5,433.8z"/>
</svg>
